# xmcd CD database file
#
# Track frame offsets:
#	165
#	17312
#	27682
#	39560
#	51682
#	63805
#	78182
#	89262
#	102680
#	116475
#
# Disc length: 1693 seconds
#
# Revision: 4
# Processed by: cddbd v1.4PL0 Copyright (c) Steve Scherf et al.
# Submitted via: CDex 1.50Beta7
#
DISCID=7e069b0a
DTITLE=Various Artist - Best Of Branson
DYEAR=1900
DGENRE=Country
TTITLE0=Heartbeat In The Darkness /Don Williams
TTITLE1=Sleeping Single In A Double Bed /Barbara Mandrell
TTITLE2=Galveston /Glen Campbell
TTITLE3=Blue Eyes Crying In The Rain /The Baldnobbers
TTITLE4=The Tip Of My Fingers /Roy Clark
TTITLE5=Drivin' My Life Away /Eddie Rabbit
TTITLE6=Hello Darlin' /Conway Twitty
TTITLE7=Coal Miners Daughter /Loretta Lynn
TTITLE8=Spiders And Snakes /Jim Stratford
TTITLE9=Red Roses For A Blue Lady /Wayne Newton
EXTD=
EXTT0=
EXTT1=
EXTT2=
EXTT3=
EXTT4=
EXTT5=
EXTT6=
EXTT7=
EXTT8=
EXTT9=
PLAYORDER=
